<?xml version="1.0" encoding="UTF-8"?>
<svg width="40px" height="40px" viewBox="0 0 40 40" version="1.1" xmlns="http://www.w3.org/2000/svg" xmlns:xlink="http://www.w3.org/1999/xlink">
    <!-- Generator: Sketch 52 (66869) - http://www.bohemiancoding.com/sketch -->
    <title>XMLID_933_</title>
    <desc>Created with Sketch.</desc>
    <g id="user-boards-page" stroke="none" stroke-width="1" fill="none" fill-rule="evenodd">
        <g id="iPhone-1" transform="translate(-81.000000, -396.000000)" fill="#FFFFFF" fill-rule="nonzero">
            <g id="boards" transform="translate(25.000000, 274.000000)">
                <g id="top-row" transform="translate(0.000000, 46.000000)">
                    <g id="add-board">
                        <path d="M96,96.3773585 C96,98.2641509 94.490566,99.7735849 92.6037736,99.7735849 L79.0188679,99.7735849 L79.0188679,112.603774 C79.0188679,114.490566 77.509434,116 75.6226415,116 C73.7358491,116 72.2264151,114.490566 72.2264151,112.603774 L72.2264151,99.7735849 L59.3962264,99.7735849 C57.509434,99.7735849 56,98.2641509 56,96.3773585 C56,94.490566 57.509434,92.9811321 59.3962264,92.9811321 L72.2264151,92.9811321 L72.2264151,79.3962264 C72.2264151,77.509434 73.7358491,76 75.6226415,76 C77.509434,76 79.0188679,77.509434 79.0188679,79.3962264 L79.0188679,92.9811321 L92.6037736,92.9811321 C94.490566,92.9811321 96,94.490566 96,96.3773585 Z" id="XMLID_933_"></path>
                    </g>
                </g>
            </g>
        </g>
    </g>
</svg>